# xmcd
#
# Track frame offsets:
#	150
#	18762
#	36821
#	55488
#	74754
#	97775
#	119070
#	139462
#	164260
#	187321
#	206696
#	224230
#	241170
#
# Disc length: 3381 seconds
#
# Revision: 6
# Processed by: cddbd v1.5.2PL0 Copyright (c) Steve Scherf et al.
# Submitted via: EasyCDDAExtractor 16.0.6.1
#
DISCID=d00d330d
DTITLE=Clarence 'Gatemouth' Brown - JB-231 Gate Swings
DYEAR=1997
DGENRE=Blues
TTITLE0=Midnight Hour
TTITLE1=Honey Dew
TTITLE2=Toughen Up
TTITLE3=Take The 'A' Train
TTITLE4=Too Late Baby
TTITLE5=Gate's Blues Waltz
TTITLE6=Caldonia
TTITLE7=Bits And Pieces
TTITLE8=River's Invitation
TTITLE9=One O'Clock Jump
TTITLE10=Take Me Back Baby
TTITLE11=Since I Fell For You
TTITLE12=Flying Home
EXTD=
EXTT0=
EXTT1=\n
EXTT2=
EXTT3=
EXTT4=
EXTT5=
EXTT6=
EXTT7=
EXTT8=
EXTT9=
EXTT10=
EXTT11=
EXTT12=
PLAYORDER=
